<svg xmlns="http://www.w3.org/2000/svg" viewBox="-69.88 36 1288.88 727.538">
  <defs>
    <style>
      .cls-1 {
        opacity: 0.05;
      }

      .cls-2 {
        fill: #af8751;
        stroke: #fff;
      }

      .cls-3 {
        stroke: none;
      }

      .cls-4 {
        fill: none;
      }
    </style>
  </defs>
  <g id="Group_1" data-name="Group 1" transform="translate(0 -36.227)">
    <g id="Group_7" data-name="Group 7" class="cls-1">
      <g id="Group_5" data-name="Group 5" transform="translate(-180.359 1195.839) rotate(-120)">
        <path id="Path_1" data-name="Path 1" class="cls-2" d="M-2.542.5H69.907V30.686H-2.542s-3-8.812-3-16.358A35.775,35.775,0,0,1-2.542.5Z" transform="translate(215.567 631.851)"/>
        <g id="Ellipse_1" data-name="Ellipse 1" class="cls-2" transform="translate(279.507 632)">
          <ellipse class="cls-3" cx="7.371" cy="15.444" rx="7.371" ry="15.444"/>
          <ellipse class="cls-4" cx="7.371" cy="15.444" rx="6.871" ry="14.944"/>
        </g>
      </g>
      <g id="Group_3" data-name="Group 3">
        <path id="Path_1-2" data-name="Path 1" class="cls-2" d="M-1.27.5h103.2v43H-1.27S-5.539,30.948-5.539,20.2A50.961,50.961,0,0,1-1.27.5Z" transform="translate(215.567 632)"/>
        <g id="Ellipse_1-2" data-name="Ellipse 1" class="cls-2" transform="translate(309 632)">
          <ellipse class="cls-3" cx="10.5" cy="22" rx="10.5" ry="22"/>
          <ellipse class="cls-4" cx="10.5" cy="22" rx="10" ry="21.5"/>
        </g>
      </g>
      <g id="Group_4" data-name="Group 4" transform="translate(345.169 -13.419) rotate(30)">
        <path id="Path_1-3" data-name="Path 1" class="cls-2" d="M-1.76.5H89.608V38.569H-1.76s-3.779-11.113-3.779-20.63A45.117,45.117,0,0,1-1.76.5Z" transform="translate(215.567 631.943)"/>
        <g id="Ellipse_1-3" data-name="Ellipse 1" class="cls-2" transform="translate(297.65 632)">
          <ellipse class="cls-3" cx="9.296" cy="19.477" rx="9.296" ry="19.477"/>
          <ellipse class="cls-4" cx="9.296" cy="19.477" rx="8.796" ry="18.977"/>
        </g>
      </g>
      <g id="Group_6" data-name="Group 6" transform="matrix(0.454, -0.891, 0.891, 0.454, -421.071, 584.482)">
        <path id="Path_1-4" data-name="Path 1" class="cls-2" d="M-2.542.5H69.907V30.686H-2.542s-3-8.812-3-16.358A35.775,35.775,0,0,1-2.542.5Z" transform="translate(215.567 631.851)"/>
        <g id="Ellipse_1-4" data-name="Ellipse 1" class="cls-2" transform="translate(279.507 632)">
          <ellipse class="cls-3" cx="7.371" cy="15.444" rx="7.371" ry="15.444"/>
          <ellipse class="cls-4" cx="7.371" cy="15.444" rx="6.871" ry="14.944"/>
        </g>
      </g>
    </g>
    <g id="Group_14" data-name="Group 14" class="cls-1" transform="translate(-261 -186)">
      <g id="Group_5-2" data-name="Group 5" transform="translate(-180.359 1195.839) rotate(-120)">
        <path id="Path_1-5" data-name="Path 1" class="cls-2" d="M-2.542.5H69.907V30.686H-2.542s-3-8.812-3-16.358A35.775,35.775,0,0,1-2.542.5Z" transform="translate(215.567 631.851)"/>
        <g id="Ellipse_1-5" data-name="Ellipse 1" class="cls-2" transform="translate(279.507 632)">
          <ellipse class="cls-3" cx="7.371" cy="15.444" rx="7.371" ry="15.444"/>
          <ellipse class="cls-4" cx="7.371" cy="15.444" rx="6.871" ry="14.944"/>
        </g>
      </g>
      <g id="Group_3-2" data-name="Group 3">
        <path id="Path_1-6" data-name="Path 1" class="cls-2" d="M-1.27.5h103.2v43H-1.27S-5.539,30.948-5.539,20.2A50.961,50.961,0,0,1-1.27.5Z" transform="translate(215.567 632)"/>
        <g id="Ellipse_1-6" data-name="Ellipse 1" class="cls-2" transform="translate(309 632)">
          <ellipse class="cls-3" cx="10.5" cy="22" rx="10.5" ry="22"/>
          <ellipse class="cls-4" cx="10.5" cy="22" rx="10" ry="21.5"/>
        </g>
      </g>
      <g id="Group_4-2" data-name="Group 4" transform="translate(345.169 -13.419) rotate(30)">
        <path id="Path_1-7" data-name="Path 1" class="cls-2" d="M-1.76.5H89.608V38.569H-1.76s-3.779-11.113-3.779-20.63A45.117,45.117,0,0,1-1.76.5Z" transform="translate(215.567 631.943)"/>
        <g id="Ellipse_1-7" data-name="Ellipse 1" class="cls-2" transform="translate(297.65 632)">
          <ellipse class="cls-3" cx="9.296" cy="19.477" rx="9.296" ry="19.477"/>
          <ellipse class="cls-4" cx="9.296" cy="19.477" rx="8.796" ry="18.977"/>
        </g>
      </g>
      <g id="Group_6-2" data-name="Group 6" transform="matrix(0.454, -0.891, 0.891, 0.454, -421.071, 584.482)">
        <path id="Path_1-8" data-name="Path 1" class="cls-2" d="M-2.542.5H69.907V30.686H-2.542s-3-8.812-3-16.358A35.775,35.775,0,0,1-2.542.5Z" transform="translate(215.567 631.851)"/>
        <g id="Ellipse_1-8" data-name="Ellipse 1" class="cls-2" transform="translate(279.507 632)">
          <ellipse class="cls-3" cx="7.371" cy="15.444" rx="7.371" ry="15.444"/>
          <ellipse class="cls-4" cx="7.371" cy="15.444" rx="6.871" ry="14.944"/>
        </g>
      </g>
    </g>
    <g id="Group_13" data-name="Group 13" class="cls-1" transform="translate(-241 -444)">
      <g id="Group_5-3" data-name="Group 5" transform="translate(-180.359 1195.839) rotate(-120)">
        <path id="Path_1-9" data-name="Path 1" class="cls-2" d="M-2.542.5H69.907V30.686H-2.542s-3-8.812-3-16.358A35.775,35.775,0,0,1-2.542.5Z" transform="translate(215.567 631.851)"/>
        <g id="Ellipse_1-9" data-name="Ellipse 1" class="cls-2" transform="translate(279.507 632)">
          <ellipse class="cls-3" cx="7.371" cy="15.444" rx="7.371" ry="15.444"/>
          <ellipse class="cls-4" cx="7.371" cy="15.444" rx="6.871" ry="14.944"/>
        </g>
      </g>
      <g id="Group_3-3" data-name="Group 3">
        <path id="Path_1-10" data-name="Path 1" class="cls-2" d="M-1.27.5h103.2v43H-1.27S-5.539,30.948-5.539,20.2A50.961,50.961,0,0,1-1.27.5Z" transform="translate(215.567 632)"/>
        <g id="Ellipse_1-10" data-name="Ellipse 1" class="cls-2" transform="translate(309 632)">
          <ellipse class="cls-3" cx="10.5" cy="22" rx="10.5" ry="22"/>
          <ellipse class="cls-4" cx="10.5" cy="22" rx="10" ry="21.5"/>
        </g>
      </g>
      <g id="Group_4-3" data-name="Group 4" transform="translate(345.169 -13.419) rotate(30)">
        <path id="Path_1-11" data-name="Path 1" class="cls-2" d="M-1.76.5H89.608V38.569H-1.76s-3.779-11.113-3.779-20.63A45.117,45.117,0,0,1-1.76.5Z" transform="translate(215.567 631.943)"/>
        <g id="Ellipse_1-11" data-name="Ellipse 1" class="cls-2" transform="translate(297.65 632)">
          <ellipse class="cls-3" cx="9.296" cy="19.477" rx="9.296" ry="19.477"/>
          <ellipse class="cls-4" cx="9.296" cy="19.477" rx="8.796" ry="18.977"/>
        </g>
      </g>
      <g id="Group_6-3" data-name="Group 6" transform="matrix(0.454, -0.891, 0.891, 0.454, -421.071, 584.482)">
        <path id="Path_1-12" data-name="Path 1" class="cls-2" d="M-2.542.5H69.907V30.686H-2.542s-3-8.812-3-16.358A35.775,35.775,0,0,1-2.542.5Z" transform="translate(215.567 631.851)"/>
        <g id="Ellipse_1-12" data-name="Ellipse 1" class="cls-2" transform="translate(279.507 632)">
          <ellipse class="cls-3" cx="7.371" cy="15.444" rx="7.371" ry="15.444"/>
          <ellipse class="cls-4" cx="7.371" cy="15.444" rx="6.871" ry="14.944"/>
        </g>
      </g>
    </g>
    <g id="Group_12" data-name="Group 12" class="cls-1" transform="translate(588 74)">
      <g id="Group_5-4" data-name="Group 5" transform="translate(-180.359 1195.839) rotate(-120)">
        <path id="Path_1-13" data-name="Path 1" class="cls-2" d="M-2.542.5H69.907V30.686H-2.542s-3-8.812-3-16.358A35.775,35.775,0,0,1-2.542.5Z" transform="translate(215.567 631.851)"/>
        <g id="Ellipse_1-13" data-name="Ellipse 1" class="cls-2" transform="translate(279.507 632)">
          <ellipse class="cls-3" cx="7.371" cy="15.444" rx="7.371" ry="15.444"/>
          <ellipse class="cls-4" cx="7.371" cy="15.444" rx="6.871" ry="14.944"/>
        </g>
      </g>
      <g id="Group_3-4" data-name="Group 3">
        <path id="Path_1-14" data-name="Path 1" class="cls-2" d="M-1.27.5h103.2v43H-1.27S-5.539,30.948-5.539,20.2A50.961,50.961,0,0,1-1.27.5Z" transform="translate(215.567 632)"/>
        <g id="Ellipse_1-14" data-name="Ellipse 1" class="cls-2" transform="translate(309 632)">
          <ellipse class="cls-3" cx="10.5" cy="22" rx="10.5" ry="22"/>
          <ellipse class="cls-4" cx="10.5" cy="22" rx="10" ry="21.5"/>
        </g>
      </g>
      <g id="Group_4-4" data-name="Group 4" transform="translate(345.169 -13.419) rotate(30)">
        <path id="Path_1-15" data-name="Path 1" class="cls-2" d="M-1.76.5H89.608V38.569H-1.76s-3.779-11.113-3.779-20.63A45.117,45.117,0,0,1-1.76.5Z" transform="translate(215.567 631.943)"/>
        <g id="Ellipse_1-15" data-name="Ellipse 1" class="cls-2" transform="translate(297.65 632)">
          <ellipse class="cls-3" cx="9.296" cy="19.477" rx="9.296" ry="19.477"/>
          <ellipse class="cls-4" cx="9.296" cy="19.477" rx="8.796" ry="18.977"/>
        </g>
      </g>
      <g id="Group_6-4" data-name="Group 6" transform="matrix(0.454, -0.891, 0.891, 0.454, -421.071, 584.482)">
        <path id="Path_1-16" data-name="Path 1" class="cls-2" d="M-2.542.5H69.907V30.686H-2.542s-3-8.812-3-16.358A35.775,35.775,0,0,1-2.542.5Z" transform="translate(215.567 631.851)"/>
        <g id="Ellipse_1-16" data-name="Ellipse 1" class="cls-2" transform="translate(279.507 632)">
          <ellipse class="cls-3" cx="7.371" cy="15.444" rx="7.371" ry="15.444"/>
          <ellipse class="cls-4" cx="7.371" cy="15.444" rx="6.871" ry="14.944"/>
        </g>
      </g>
    </g>
    <g id="Group_16" data-name="Group 16" class="cls-1" transform="translate(889 -58)">
      <g id="Group_5-5" data-name="Group 5" transform="translate(-180.359 1195.839) rotate(-120)">
        <path id="Path_1-17" data-name="Path 1" class="cls-2" d="M-2.542.5H69.907V30.686H-2.542s-3-8.812-3-16.358A35.775,35.775,0,0,1-2.542.5Z" transform="translate(215.567 631.851)"/>
        <g id="Ellipse_1-17" data-name="Ellipse 1" class="cls-2" transform="translate(279.507 632)">
          <ellipse class="cls-3" cx="7.371" cy="15.444" rx="7.371" ry="15.444"/>
          <ellipse class="cls-4" cx="7.371" cy="15.444" rx="6.871" ry="14.944"/>
        </g>
      </g>
      <g id="Group_3-5" data-name="Group 3">
        <path id="Path_1-18" data-name="Path 1" class="cls-2" d="M-1.27.5h103.2v43H-1.27S-5.539,30.948-5.539,20.2A50.961,50.961,0,0,1-1.27.5Z" transform="translate(215.567 632)"/>
        <g id="Ellipse_1-18" data-name="Ellipse 1" class="cls-2" transform="translate(309 632)">
          <ellipse class="cls-3" cx="10.5" cy="22" rx="10.5" ry="22"/>
          <ellipse class="cls-4" cx="10.5" cy="22" rx="10" ry="21.5"/>
        </g>
      </g>
      <g id="Group_4-5" data-name="Group 4" transform="translate(345.169 -13.419) rotate(30)">
        <path id="Path_1-19" data-name="Path 1" class="cls-2" d="M-1.76.5H89.608V38.569H-1.76s-3.779-11.113-3.779-20.63A45.117,45.117,0,0,1-1.76.5Z" transform="translate(215.567 631.943)"/>
        <g id="Ellipse_1-19" data-name="Ellipse 1" class="cls-2" transform="translate(297.65 632)">
          <ellipse class="cls-3" cx="9.296" cy="19.477" rx="9.296" ry="19.477"/>
          <ellipse class="cls-4" cx="9.296" cy="19.477" rx="8.796" ry="18.977"/>
        </g>
      </g>
      <g id="Group_6-5" data-name="Group 6" transform="matrix(0.454, -0.891, 0.891, 0.454, -421.071, 584.482)">
        <path id="Path_1-20" data-name="Path 1" class="cls-2" d="M-2.542.5H69.907V30.686H-2.542s-3-8.812-3-16.358A35.775,35.775,0,0,1-2.542.5Z" transform="translate(215.567 631.851)"/>
        <g id="Ellipse_1-20" data-name="Ellipse 1" class="cls-2" transform="translate(279.507 632)">
          <ellipse class="cls-3" cx="7.371" cy="15.444" rx="7.371" ry="15.444"/>
          <ellipse class="cls-4" cx="7.371" cy="15.444" rx="6.871" ry="14.944"/>
        </g>
      </g>
    </g>
    <g id="Group_15" data-name="Group 15" class="cls-1" transform="translate(302 16)">
      <g id="Group_5-6" data-name="Group 5" transform="translate(-180.359 1195.839) rotate(-120)">
        <path id="Path_1-21" data-name="Path 1" class="cls-2" d="M-2.542.5H69.907V30.686H-2.542s-3-8.812-3-16.358A35.775,35.775,0,0,1-2.542.5Z" transform="translate(215.567 631.851)"/>
        <g id="Ellipse_1-21" data-name="Ellipse 1" class="cls-2" transform="translate(279.507 632)">
          <ellipse class="cls-3" cx="7.371" cy="15.444" rx="7.371" ry="15.444"/>
          <ellipse class="cls-4" cx="7.371" cy="15.444" rx="6.871" ry="14.944"/>
        </g>
      </g>
      <g id="Group_3-6" data-name="Group 3">
        <path id="Path_1-22" data-name="Path 1" class="cls-2" d="M-1.27.5h103.2v43H-1.27S-5.539,30.948-5.539,20.2A50.961,50.961,0,0,1-1.27.5Z" transform="translate(215.567 632)"/>
        <g id="Ellipse_1-22" data-name="Ellipse 1" class="cls-2" transform="translate(309 632)">
          <ellipse class="cls-3" cx="10.5" cy="22" rx="10.5" ry="22"/>
          <ellipse class="cls-4" cx="10.5" cy="22" rx="10" ry="21.5"/>
        </g>
      </g>
      <g id="Group_4-6" data-name="Group 4" transform="translate(345.169 -13.419) rotate(30)">
        <path id="Path_1-23" data-name="Path 1" class="cls-2" d="M-1.76.5H89.608V38.569H-1.76s-3.779-11.113-3.779-20.63A45.117,45.117,0,0,1-1.76.5Z" transform="translate(215.567 631.943)"/>
        <g id="Ellipse_1-23" data-name="Ellipse 1" class="cls-2" transform="translate(297.65 632)">
          <ellipse class="cls-3" cx="9.296" cy="19.477" rx="9.296" ry="19.477"/>
          <ellipse class="cls-4" cx="9.296" cy="19.477" rx="8.796" ry="18.977"/>
        </g>
      </g>
      <g id="Group_6-6" data-name="Group 6" transform="matrix(0.454, -0.891, 0.891, 0.454, -421.071, 584.482)">
        <path id="Path_1-24" data-name="Path 1" class="cls-2" d="M-2.542.5H69.907V30.686H-2.542s-3-8.812-3-16.358A35.775,35.775,0,0,1-2.542.5Z" transform="translate(215.567 631.851)"/>
        <g id="Ellipse_1-24" data-name="Ellipse 1" class="cls-2" transform="translate(279.507 632)">
          <ellipse class="cls-3" cx="7.371" cy="15.444" rx="7.371" ry="15.444"/>
          <ellipse class="cls-4" cx="7.371" cy="15.444" rx="6.871" ry="14.944"/>
        </g>
      </g>
    </g>
    <g id="Group_8" data-name="Group 8" class="cls-1" transform="translate(400 -209)">
      <g id="Group_5-7" data-name="Group 5" transform="translate(-180.359 1195.839) rotate(-120)">
        <path id="Path_1-25" data-name="Path 1" class="cls-2" d="M-2.542.5H69.907V30.686H-2.542s-3-8.812-3-16.358A35.775,35.775,0,0,1-2.542.5Z" transform="translate(215.567 631.851)"/>
        <g id="Ellipse_1-25" data-name="Ellipse 1" class="cls-2" transform="translate(279.507 632)">
          <ellipse class="cls-3" cx="7.371" cy="15.444" rx="7.371" ry="15.444"/>
          <ellipse class="cls-4" cx="7.371" cy="15.444" rx="6.871" ry="14.944"/>
        </g>
      </g>
      <g id="Group_3-7" data-name="Group 3">
        <path id="Path_1-26" data-name="Path 1" class="cls-2" d="M-1.27.5h103.2v43H-1.27S-5.539,30.948-5.539,20.2A50.961,50.961,0,0,1-1.27.5Z" transform="translate(215.567 632)"/>
        <g id="Ellipse_1-26" data-name="Ellipse 1" class="cls-2" transform="translate(309 632)">
          <ellipse class="cls-3" cx="10.5" cy="22" rx="10.5" ry="22"/>
          <ellipse class="cls-4" cx="10.5" cy="22" rx="10" ry="21.5"/>
        </g>
      </g>
      <g id="Group_4-7" data-name="Group 4" transform="translate(345.169 -13.419) rotate(30)">
        <path id="Path_1-27" data-name="Path 1" class="cls-2" d="M-1.76.5H89.608V38.569H-1.76s-3.779-11.113-3.779-20.63A45.117,45.117,0,0,1-1.76.5Z" transform="translate(215.567 631.943)"/>
        <g id="Ellipse_1-27" data-name="Ellipse 1" class="cls-2" transform="translate(297.65 632)">
          <ellipse class="cls-3" cx="9.296" cy="19.477" rx="9.296" ry="19.477"/>
          <ellipse class="cls-4" cx="9.296" cy="19.477" rx="8.796" ry="18.977"/>
        </g>
      </g>
      <g id="Group_6-7" data-name="Group 6" transform="matrix(0.454, -0.891, 0.891, 0.454, -421.071, 584.482)">
        <path id="Path_1-28" data-name="Path 1" class="cls-2" d="M-2.542.5H69.907V30.686H-2.542s-3-8.812-3-16.358A35.775,35.775,0,0,1-2.542.5Z" transform="translate(215.567 631.851)"/>
        <g id="Ellipse_1-28" data-name="Ellipse 1" class="cls-2" transform="translate(279.507 632)">
          <ellipse class="cls-3" cx="7.371" cy="15.444" rx="7.371" ry="15.444"/>
          <ellipse class="cls-4" cx="7.371" cy="15.444" rx="6.871" ry="14.944"/>
        </g>
      </g>
    </g>
    <g id="Group_11" data-name="Group 11" class="cls-1" transform="translate(0 -346)">
      <g id="Group_5-8" data-name="Group 5" transform="translate(-180.359 1195.839) rotate(-120)">
        <path id="Path_1-29" data-name="Path 1" class="cls-2" d="M-2.542.5H69.907V30.686H-2.542s-3-8.812-3-16.358A35.775,35.775,0,0,1-2.542.5Z" transform="translate(215.567 631.851)"/>
        <g id="Ellipse_1-29" data-name="Ellipse 1" class="cls-2" transform="translate(279.507 632)">
          <ellipse class="cls-3" cx="7.371" cy="15.444" rx="7.371" ry="15.444"/>
          <ellipse class="cls-4" cx="7.371" cy="15.444" rx="6.871" ry="14.944"/>
        </g>
      </g>
      <g id="Group_3-8" data-name="Group 3">
        <path id="Path_1-30" data-name="Path 1" class="cls-2" d="M-1.27.5h103.2v43H-1.27S-5.539,30.948-5.539,20.2A50.961,50.961,0,0,1-1.27.5Z" transform="translate(215.567 632)"/>
        <g id="Ellipse_1-30" data-name="Ellipse 1" class="cls-2" transform="translate(309 632)">
          <ellipse class="cls-3" cx="10.5" cy="22" rx="10.5" ry="22"/>
          <ellipse class="cls-4" cx="10.5" cy="22" rx="10" ry="21.5"/>
        </g>
      </g>
      <g id="Group_4-8" data-name="Group 4" transform="translate(345.169 -13.419) rotate(30)">
        <path id="Path_1-31" data-name="Path 1" class="cls-2" d="M-1.76.5H89.608V38.569H-1.76s-3.779-11.113-3.779-20.63A45.117,45.117,0,0,1-1.76.5Z" transform="translate(215.567 631.943)"/>
        <g id="Ellipse_1-31" data-name="Ellipse 1" class="cls-2" transform="translate(297.65 632)">
          <ellipse class="cls-3" cx="9.296" cy="19.477" rx="9.296" ry="19.477"/>
          <ellipse class="cls-4" cx="9.296" cy="19.477" rx="8.796" ry="18.977"/>
        </g>
      </g>
      <g id="Group_6-8" data-name="Group 6" transform="matrix(0.454, -0.891, 0.891, 0.454, -421.071, 584.482)">
        <path id="Path_1-32" data-name="Path 1" class="cls-2" d="M-2.542.5H69.907V30.686H-2.542s-3-8.812-3-16.358A35.775,35.775,0,0,1-2.542.5Z" transform="translate(215.567 631.851)"/>
        <g id="Ellipse_1-32" data-name="Ellipse 1" class="cls-2" transform="translate(279.507 632)">
          <ellipse class="cls-3" cx="7.371" cy="15.444" rx="7.371" ry="15.444"/>
          <ellipse class="cls-4" cx="7.371" cy="15.444" rx="6.871" ry="14.944"/>
        </g>
      </g>
    </g>
    <g id="Group_9" data-name="Group 9" class="cls-1" transform="translate(285 -502)">
      <g id="Group_5-9" data-name="Group 5" transform="translate(-180.359 1195.839) rotate(-120)">
        <path id="Path_1-33" data-name="Path 1" class="cls-2" d="M-2.542.5H69.907V30.686H-2.542s-3-8.812-3-16.358A35.775,35.775,0,0,1-2.542.5Z" transform="translate(215.567 631.851)"/>
        <g id="Ellipse_1-33" data-name="Ellipse 1" class="cls-2" transform="translate(279.507 632)">
          <ellipse class="cls-3" cx="7.371" cy="15.444" rx="7.371" ry="15.444"/>
          <ellipse class="cls-4" cx="7.371" cy="15.444" rx="6.871" ry="14.944"/>
        </g>
      </g>
      <g id="Group_3-9" data-name="Group 3">
        <path id="Path_1-34" data-name="Path 1" class="cls-2" d="M-1.27.5h103.2v43H-1.27S-5.539,30.948-5.539,20.2A50.961,50.961,0,0,1-1.27.5Z" transform="translate(215.567 632)"/>
        <g id="Ellipse_1-34" data-name="Ellipse 1" class="cls-2" transform="translate(309 632)">
          <ellipse class="cls-3" cx="10.5" cy="22" rx="10.5" ry="22"/>
          <ellipse class="cls-4" cx="10.5" cy="22" rx="10" ry="21.5"/>
        </g>
      </g>
      <g id="Group_4-9" data-name="Group 4" transform="translate(345.169 -13.419) rotate(30)">
        <path id="Path_1-35" data-name="Path 1" class="cls-2" d="M-1.76.5H89.608V38.569H-1.76s-3.779-11.113-3.779-20.63A45.117,45.117,0,0,1-1.76.5Z" transform="translate(215.567 631.943)"/>
        <g id="Ellipse_1-35" data-name="Ellipse 1" class="cls-2" transform="translate(297.65 632)">
          <ellipse class="cls-3" cx="9.296" cy="19.477" rx="9.296" ry="19.477"/>
          <ellipse class="cls-4" cx="9.296" cy="19.477" rx="8.796" ry="18.977"/>
        </g>
      </g>
      <g id="Group_6-9" data-name="Group 6" transform="matrix(0.454, -0.891, 0.891, 0.454, -421.071, 584.482)">
        <path id="Path_1-36" data-name="Path 1" class="cls-2" d="M-2.542.5H69.907V30.686H-2.542s-3-8.812-3-16.358A35.775,35.775,0,0,1-2.542.5Z" transform="translate(215.567 631.851)"/>
        <g id="Ellipse_1-36" data-name="Ellipse 1" class="cls-2" transform="translate(279.507 632)">
          <ellipse class="cls-3" cx="7.371" cy="15.444" rx="7.371" ry="15.444"/>
          <ellipse class="cls-4" cx="7.371" cy="15.444" rx="6.871" ry="14.944"/>
        </g>
      </g>
    </g>
    <g id="Group_10" data-name="Group 10" class="cls-1" transform="translate(788 -537)">
      <g id="Group_5-10" data-name="Group 5" transform="translate(-180.359 1195.839) rotate(-120)">
        <path id="Path_1-37" data-name="Path 1" class="cls-2" d="M-2.542.5H69.907V30.686H-2.542s-3-8.812-3-16.358A35.775,35.775,0,0,1-2.542.5Z" transform="translate(215.567 631.851)"/>
        <g id="Ellipse_1-37" data-name="Ellipse 1" class="cls-2" transform="translate(279.507 632)">
          <ellipse class="cls-3" cx="7.371" cy="15.444" rx="7.371" ry="15.444"/>
          <ellipse class="cls-4" cx="7.371" cy="15.444" rx="6.871" ry="14.944"/>
        </g>
      </g>
      <g id="Group_3-10" data-name="Group 3">
        <path id="Path_1-38" data-name="Path 1" class="cls-2" d="M-1.27.5h103.2v43H-1.27S-5.539,30.948-5.539,20.2A50.961,50.961,0,0,1-1.27.5Z" transform="translate(215.567 632)"/>
        <g id="Ellipse_1-38" data-name="Ellipse 1" class="cls-2" transform="translate(309 632)">
          <ellipse class="cls-3" cx="10.5" cy="22" rx="10.5" ry="22"/>
          <ellipse class="cls-4" cx="10.5" cy="22" rx="10" ry="21.5"/>
        </g>
      </g>
      <g id="Group_4-10" data-name="Group 4" transform="translate(345.169 -13.419) rotate(30)">
        <path id="Path_1-39" data-name="Path 1" class="cls-2" d="M-1.76.5H89.608V38.569H-1.76s-3.779-11.113-3.779-20.63A45.117,45.117,0,0,1-1.76.5Z" transform="translate(215.567 631.943)"/>
        <g id="Ellipse_1-39" data-name="Ellipse 1" class="cls-2" transform="translate(297.65 632)">
          <ellipse class="cls-3" cx="9.296" cy="19.477" rx="9.296" ry="19.477"/>
          <ellipse class="cls-4" cx="9.296" cy="19.477" rx="8.796" ry="18.977"/>
        </g>
      </g>
      <g id="Group_6-10" data-name="Group 6" transform="matrix(0.454, -0.891, 0.891, 0.454, -421.071, 584.482)">
        <path id="Path_1-40" data-name="Path 1" class="cls-2" d="M-2.542.5H69.907V30.686H-2.542s-3-8.812-3-16.358A35.775,35.775,0,0,1-2.542.5Z" transform="translate(215.567 631.851)"/>
        <g id="Ellipse_1-40" data-name="Ellipse 1" class="cls-2" transform="translate(279.507 632)">
          <ellipse class="cls-3" cx="7.371" cy="15.444" rx="7.371" ry="15.444"/>
          <ellipse class="cls-4" cx="7.371" cy="15.444" rx="6.871" ry="14.944"/>
        </g>
      </g>
    </g>
    <g id="Group_17" data-name="Group 17" class="cls-1" transform="translate(650 -267)">
      <g id="Group_5-11" data-name="Group 5" transform="translate(-180.359 1195.839) rotate(-120)">
        <path id="Path_1-41" data-name="Path 1" class="cls-2" d="M-2.542.5H69.907V30.686H-2.542s-3-8.812-3-16.358A35.775,35.775,0,0,1-2.542.5Z" transform="translate(215.567 631.851)"/>
        <g id="Ellipse_1-41" data-name="Ellipse 1" class="cls-2" transform="translate(279.507 632)">
          <ellipse class="cls-3" cx="7.371" cy="15.444" rx="7.371" ry="15.444"/>
          <ellipse class="cls-4" cx="7.371" cy="15.444" rx="6.871" ry="14.944"/>
        </g>
      </g>
      <g id="Group_3-11" data-name="Group 3">
        <path id="Path_1-42" data-name="Path 1" class="cls-2" d="M-1.27.5h103.2v43H-1.27S-5.539,30.948-5.539,20.2A50.961,50.961,0,0,1-1.27.5Z" transform="translate(215.567 632)"/>
        <g id="Ellipse_1-42" data-name="Ellipse 1" class="cls-2" transform="translate(309 632)">
          <ellipse class="cls-3" cx="10.5" cy="22" rx="10.5" ry="22"/>
          <ellipse class="cls-4" cx="10.5" cy="22" rx="10" ry="21.5"/>
        </g>
      </g>
      <g id="Group_4-11" data-name="Group 4" transform="translate(345.169 -13.419) rotate(30)">
        <path id="Path_1-43" data-name="Path 1" class="cls-2" d="M-1.76.5H89.608V38.569H-1.76s-3.779-11.113-3.779-20.63A45.117,45.117,0,0,1-1.76.5Z" transform="translate(215.567 631.943)"/>
        <g id="Ellipse_1-43" data-name="Ellipse 1" class="cls-2" transform="translate(297.65 632)">
          <ellipse class="cls-3" cx="9.296" cy="19.477" rx="9.296" ry="19.477"/>
          <ellipse class="cls-4" cx="9.296" cy="19.477" rx="8.796" ry="18.977"/>
        </g>
      </g>
      <g id="Group_6-11" data-name="Group 6" transform="matrix(0.454, -0.891, 0.891, 0.454, -421.071, 584.482)">
        <path id="Path_1-44" data-name="Path 1" class="cls-2" d="M-2.542.5H69.907V30.686H-2.542s-3-8.812-3-16.358A35.775,35.775,0,0,1-2.542.5Z" transform="translate(215.567 631.851)"/>
        <g id="Ellipse_1-44" data-name="Ellipse 1" class="cls-2" transform="translate(279.507 632)">
          <ellipse class="cls-3" cx="7.371" cy="15.444" rx="7.371" ry="15.444"/>
          <ellipse class="cls-4" cx="7.371" cy="15.444" rx="6.871" ry="14.944"/>
        </g>
      </g>
    </g>
  </g>
</svg>
