<svg id="Layer_1" data-name="Layer 1" xmlns="http://www.w3.org/2000/svg" viewBox="0 0 113.39 96.79"><defs><style>.cls-1{fill:#593b1a;}.cls-2{fill:none;}</style></defs><title>wood_logo</title><path class="cls-1" d="M36.63,94.81l-0.07-.1-0.09-.13,0,0L36.09,94l-1-1.47-2.52-.12-0.85.83-2.87,1.06,5,4.54,4-.55,0.51-.81-1.21-1.77Z" transform="translate(-14.17 -22.47)"/><path class="cls-1" d="M94.05,105.64l-0.37.26-0.37.26h0c-0.36.24-.73,0.48-1.1,0.71h0L92,107l-0.35.22h0l0,0-0.76.47-0.13,2.62,0.79,0.81L92.56,114l4.54-5-0.54-4-0.78-.5-0.07,0-1.21.78Z" transform="translate(-14.17 -22.47)"/><path class="cls-1" d="M63,112.32l-0.78-.15L61.4,112h0l-1.54-.33-1.93,1.75,0,1.08-1.31,2.84,6.72-.3,2.45-3.23-0.13-.59-0.08-.35Z" transform="translate(-14.17 -22.47)"/><path class="cls-1" d="M78.56,112.27h0l-0.42.08-0.35.06-0.36.06-1.67.31-1.13,2.38,0.42,1-0.12,3.12L81,116.42l1-3.9-0.57-.8-2.35.44h0Z" transform="translate(-14.17 -22.47)"/><path class="cls-1" d="M104.51,94.94l0,0-0.27.38-0.12.17h0c-0.25.35-.49,0.71-0.75,1.06l-0.5.69,0.89,2.48,1,0.44,2.08,2.24,2.3-6.32-2-3.46-1-.17-0.93,1.36-0.19.3Z" transform="translate(-14.17 -22.47)"/><path class="cls-1" d="M48.19,106.34l-2.6-1.78-0.8.29-1.63.58L42.7,106.5l-2.24,2.08,6.32,2.3,3.48-2,0.17-1-2-1.38Z" transform="translate(-14.17 -22.47)"/><path class="cls-1" d="M55.06,109.95l-0.74-.32L51,108.25l-0.59,3.26L48.64,114l6.66,0.94L59,111.57l-3.32-1.37L55.13,110Z" transform="translate(-14.17 -22.47)"/><polygon class="cls-1" points="95.67 70.07 98.16 71.83 98.75 67.73 93.14 67.73 92.41 69.48 95.67 70.07"/><path class="cls-1" d="M86.23,109.95h0l-0.38.15-0.41.16-0.37.14-2.91,1.2L84,114.33l0.52,3,5.38-4,0.25-5L87,109.61l-0.78.34h0Z" transform="translate(-14.17 -22.47)"/><polygon class="cls-1" points="20.48 69.39 19.79 67.73 14.4 67.73 15.46 69.14 20.48 69.39"/><path class="cls-1" d="M99.44,101.12l-3.1,3.1L99.13,106l1.63,2.59,3.42-5.79-1.69-4.73-3,3h0Z" transform="translate(-14.17 -22.47)"/><polygon class="cls-1" points="24.57 75.54 22.78 78.32 20.19 79.95 25.98 83.37 30.71 81.68 24.57 75.54"/><polygon class="cls-1" points="56.02 90.57 55.85 90.57 55.25 90.57 52.08 90.57 52.8 93.74 52.11 96.79 58.62 95.11 60.77 90.57 60.16 90.57 56.48 90.57 56.29 90.57 56.02 90.57"/><path class="cls-1" d="M35.29,91.26l0.07,0.14,0.16,0.27,0.11,0.19c0.21,0.38.42,0.74,0.63,1.1l0.22,0.36,0.13,0.2c0.23,0.37.46,0.74,0.7,1.09L37.56,95l0.14,0.2c0.26,0.37.5,0.71,0.74,1l0.32,0.41L39,96.93c0.21,0.28.42,0.55,0.65,0.82l0.48,0.56,0.38,0.44,0.42,0.48c0.46,0.5.92,1,1.37,1.44s0.93,0.91,1.44,1.37l0.48,0.41,0.44,0.38L45,103.18l0.12,0.11,0,0L46,103.91l0.46,0.36,0.32,0.25c0.33,0.25.68,0.49,1,.72l0.2,0.14,0.23,0.16,0.08,0.05,1.36,0.87L50,106.7l1.09,0.63,0.19,0.11,0.44,0.24,1,0.54,0.14,0.07,0.59,0.29L54.34,109l0.23,0.1,0.73,0.31L56,109.66l0.16,0.06,1,0.38,0.58,0.2,0.19,0.06L59,110.71l0.49,0.14,0.18,0.05,1.22,0.33,0.42,0.1,0.21,0,1.28,0.28,0.41,0.07,0.24,0L64.78,112l0.5,0.06,0.43,0.05,1,0.12,0.75,0.06,0.49,0,0.39,0h0.06l0.25,0c1.39,0.07,2.68.06,4,0l0.46,0,0.75-.05,0.75-.06,1-.12,0.43-.05,0.5-.06,0.65-.11,0.16,0,0.35-.06,0.36-.06,0.41-.07,0.56-.11,0.48-.11,0.46-.11,0.42-.1,1.22-.33,0.19-.05,0.49-.14,1.12-.36,0.19-.06,0.58-.2,0.71-.26,0.46-.18,0.68-.27,0.76-.33,0.1,0,0.1,0,0.87-.39,0.59-.29,0.14-.07,1-.54,0.44-.24,0.19-.11,1.08-.62,0.87-.56,1.34-.87c0.35-.24.7-0.49,1-0.74l0.38-.3,0.37-.29,0.78-.61,0.56-.48,0.45-.39,0.48-.41c0.5-.46,1-0.92,1.44-1.37s0.91-.94,1.37-1.44l0.42-.49,0.37-.43,0.48-.57c0.23-.28.45-0.56,0.66-0.84l0.54-.69c0.26-.34.5-0.69,0.74-1l0.13-.18,0.26-.37c0.24-.36.47-0.73,0.7-1.09l0.18-.28L105,93c0.22-.36.42-0.73,0.63-1.09l0.12-.21,0.23-.41c0.18-.34.36-0.7,0.54-1H34.75C34.93,90.56,35.11,90.92,35.29,91.26Z" transform="translate(-14.17 -22.47)"/><path class="cls-2" d="M76.42,36.23l0.64,0.09a14.32,14.32,0,0,0,4,0c-4-3.59-9.06-11.07-10.22-12.81L60.65,36.22l4.61,0.09L65,36.77a41.35,41.35,0,0,1-5.85,7.34c1.77,2.2,4.32,4.85,7.06,5.95l0.49,0.2-0.41.33c-1.52,1.23-4.81,1.51-6.15,1.58C61.45,54,66.57,61,70.78,63.74l0.09,0.06L71,63.74C75.18,61,80.26,54,81.52,52.25c-1.33-.19-4.86-0.75-6.06-1.66L75,50.26l0.52-.2c2.68-1,5.26-3.72,7-6a39.55,39.55,0,0,1-5.83-7.32Z" transform="translate(-14.17 -22.47)"/><path class="cls-1" d="M127.14,72.29c-3.54-2.34-7.85-8.14-9.05-9.82,1.2-.06,3.92-0.32,5.2-1.36l0.41-.33-0.49-.2c-3.56-1.42-6.74-5.91-7.76-7.46a7.93,7.93,0,0,0,3-.21l0.5-.18-0.41-.34c-3.26-2.77-8-9.89-8-10l-0.23-.36-2.78,3.47-3.74.51,0.86-1.37L108,42.55l-6.91-4.08-2.1.75-0.12-.12,0.08-.2,2.93-2.72-7.55-2.74-0.1.06c-0.5-.67-1-1.31-1.38-1.89l0.77-1.09-1.7-.24c-0.62-.89-1-1.47-1-1.49l-0.23-.36-1.2,1.5-3.8-.54L83.87,31v-0.4L85.53,27l-8,.35-1.64,2.15-0.93-1.23,0.77-3.4-2.72.7c-1.13-1.61-1.87-2.72-1.89-2.76l-0.23-.36L66.8,27.55l0.11-2.81-7.28,3.4-1,3.68-0.94-1.33L57,26.54l-4.81,3.62c-0.57-.83-0.92-1.35-0.93-1.38l-0.23-.36-1.87,2.33-0.35-1-5.42,5.92,0.26,1.92-0.89,1.11-0.26-.17L40.4,35.21l-4.08,6.91,0.83,2.33-0.35-.14-2.72-2.93L33,44.32c-0.78-1.11-1.28-1.87-1.29-1.89l-0.23-.36L22.77,53,26.34,53c-1,1.49-4.3,6.19-7.82,7.56l-0.52.2,0.44,0.33c1,0.76,3.94,1.24,5.13,1.41-1.14,1.6-5.42,7.41-9,9.74l-0.43.28,0.44,0.25a13.44,13.44,0,0,0,5.89,1.63V73.83a12.91,12.91,0,0,1-5.15-1.32c4.13-3,8.81-9.74,9-10l0.29-.42L24.16,62a22.24,22.24,0,0,1-4.83-1.08c4.14-2,7.68-7.77,7.84-8l0.28-.46L24,52.37l7.4-9.25c1,1.43,4.56,6.69,7.44,9.35a11.09,11.09,0,0,1-2.78,0l-0.64-.09,0.33,0.56c0.15,0.25,3.61,6,7.87,8a13.83,13.83,0,0,1-4.95.94H38.13l0.33,0.48a62,62,0,0,0,7,8.39h4.07V65.07H49.25c-1.51,0-3,.15-4.53.27-1,.08-2.06.16-3.08,0.22-1.06-1.33-1.91-2.47-2.34-3.08,1.2-.06,3.92-0.32,5.2-1.36l0.41-.33-0.49-.2a14.75,14.75,0,0,1-5.07-3.95c1.89-2.35,3.23-4.28,3.35-4.45L43,51.77l-0.51-.06a36.27,36.27,0,0,1-4.3-.81Q37.8,50.48,37.41,50C42,47.47,45.79,41.26,46,41l0.28-.46-4-.08,8.77-11c1.06,1.59,5.4,7.94,8.82,11.06a12.64,12.64,0,0,1-3.37,0l-0.64-.09L56.15,41c0.18,0.3,4.27,7.06,9.28,9.41-2,1.11-5.86,1.16-5.9,1.16H58.95L59.28,52C59.52,52.4,65.15,60.51,70,64,66,66,61.82,65.7,57.4,65.34c-1.46-.12-3-0.24-4.46-0.27H52.63v5.69H69.11V65.06a14,14,0,0,0,1.65-.79l0.11-.06L71,64.26a14,14,0,0,0,1.74.82v5.66H89.19V65.07H88.87c-1.51,0-3,.15-4.53.27C79.91,65.69,75.72,66,71.72,64c4.84-3.43,10.36-11.43,10.6-11.78l0.29-.42-0.51-.06a26.43,26.43,0,0,1-5.77-1.31c4.88-2.28,9.07-9.12,9.25-9.42l0.28-.46-4-.08,8.77-11c1.06,1.59,5.4,7.94,8.82,11.06a12.64,12.64,0,0,1-3.37,0l-0.64-.09L95.77,41c0.17,0.28,3.73,6.16,8.26,8.86l-1,1.26a21.61,21.61,0,0,1-3.88.45H98.56L98.89,52c0.12,0.17,1.51,2.18,3.47,4.59a14.5,14.5,0,0,1-5.06,4l-0.52.2,0.44,0.33c1,0.76,3.94,1.24,5.13,1.41-0.41.58-1.23,1.7-2.28,3-1-.05-2-0.13-3.05-0.22-1.46-.12-3-0.24-4.46-0.27H92.24v5.69h4a60,60,0,0,0,6.92-8.27l0.29-.42L102.93,62a22.24,22.24,0,0,1-4.83-1.08c4.14-2,7.68-7.77,7.84-8l0.28-.46-3.41-.07,7.4-9.25c1,1.43,4.56,6.69,7.44,9.35a11.09,11.09,0,0,1-2.78,0l-0.64-.09,0.33,0.56c0.15,0.25,3.61,6,7.87,8a13.83,13.83,0,0,1-4.95.94h-0.58l0.33,0.48c0.21,0.3,5,7.17,9.13,10.16a13.68,13.68,0,0,1-6.29,1.36v0.61a14.15,14.15,0,0,0,7-1.67l0.44-.25ZM82.58,44.11c-1.79,2.23-4.37,4.91-7,6l-0.52.2,0.44,0.33c1.2,0.91,4.73,1.47,6.06,1.66C80.26,54,75.18,61,71,63.74l-0.09.06-0.09-.06C66.57,61,61.45,54,60.11,52.16c1.34-.07,4.63-0.35,6.15-1.58l0.41-.33-0.49-.2c-2.74-1.1-5.29-3.74-7.06-5.95A41.35,41.35,0,0,0,65,36.77l0.28-.46-4.61-.09,10.17-12.7C72,25.26,77.07,32.73,81,36.33a14.32,14.32,0,0,1-4,0l-0.64-.09,0.33,0.56A39.55,39.55,0,0,0,82.58,44.11Z" transform="translate(-14.17 -22.47)"/><path class="cls-1" d="M119.46,89.58V71.37H21.13V89.58h98.33ZM41.31,85.72l-0.22-5.13-2.16,2.67-2.22-2.67-0.22,5.13-2-.08,0.42-10.55,4,4.87,4-4.87,0.44,10.55ZM53.8,83.25v0a3.1,3.1,0,0,1-.69,1.54,2.66,2.66,0,0,1-1.6.87A12.23,12.23,0,0,1,50,85.8l-0.24,0-0.69,0h-0.4a5,5,0,0,1-3.62-1,2.74,2.74,0,0,1-.73-2v0s0-.28,0-0.47v-0.4l2.16,0v0.93a0.58,0.58,0,0,0,.1.48,3.24,3.24,0,0,0,2.08.42h0.26c0.26,0,.53,0,0.77,0H49.8a3.93,3.93,0,0,0,1.68-.24h0a1.05,1.05,0,0,0,.12-0.46,6,6,0,0,0,0-1.47,3.75,3.75,0,0,0-1.45-.22l-2.42,0a11.52,11.52,0,0,1-2.26-.2,1.77,1.77,0,0,1-1.21-1,1.56,1.56,0,0,1-.12-0.51c0-1.74-.08-2.4.63-3.35a2.72,2.72,0,0,1,1.64-.83,8.16,8.16,0,0,1,1.76-.14h0.4a2.14,2.14,0,0,1,.36,0,6.36,6.36,0,0,1,3.58.67,2.28,2.28,0,0,1,1.09,1.9v0.67l-2.16.08V77.88c0-.06,0-0.08-0.12-0.12a3.88,3.88,0,0,0-2.1-.36H48.67a2.57,2.57,0,0,0-.38,0,4.72,4.72,0,0,0-1.86.24A2.1,2.1,0,0,0,46.3,79h0a12.46,12.46,0,0,0,1.43.06H50.2a4.68,4.68,0,0,1,2.83.71,1.79,1.79,0,0,1,.77,1.45A8.51,8.51,0,0,1,53.8,83.25Zm19.92,2.48-4.08-5-4.06,5L65.15,75.19l1.86-.1,0.22,5.66,2.42-3,2.44,3,0.24-5.66,1.84,0.1Zm10.83-3.37-0.12.4a5.81,5.81,0,0,1-1,1.58,5,5,0,0,1-1.56,1.15,4.58,4.58,0,0,1-2,.46h0a4.56,4.56,0,0,1-1.94-.46,5.08,5.08,0,0,1-1.58-1.15,5.75,5.75,0,0,1-1-1.58l0-.08-0.12-.32a6.27,6.27,0,0,1-.28-1.84,5.52,5.52,0,0,1,.16-1.39l0,0,0.2-.57,0,0a0.28,0.28,0,0,1,0-.12,5.28,5.28,0,0,1,1-1.68,5,5,0,0,1,1.56-1.17,4.54,4.54,0,0,1,2-.42h0a4.42,4.42,0,0,1,2,.42,4.76,4.76,0,0,1,1.56,1.17,5,5,0,0,1,1.07,1.72l0,0.06s0,0,0,0l0,0.12,0.16,0.46-0.06,0a5.21,5.21,0,0,1,.18,1.39A5.7,5.7,0,0,1,84.55,82.36Zm10.69,0-0.12.4a5.81,5.81,0,0,1-1,1.58,5,5,0,0,1-1.56,1.15,4.58,4.58,0,0,1-2,.46h0a4.57,4.57,0,0,1-1.94-.46A5.09,5.09,0,0,1,87,84.34a5.75,5.75,0,0,1-1-1.58l0-.08-0.12-.32a6.27,6.27,0,0,1-.28-1.84,5.51,5.51,0,0,1,.16-1.39l0,0,0.2-.57,0,0a0.28,0.28,0,0,1,0-.12,5.28,5.28,0,0,1,1-1.68,5,5,0,0,1,1.56-1.17,4.54,4.54,0,0,1,2-.42h0a4.42,4.42,0,0,1,2,.42,4.76,4.76,0,0,1,1.56,1.17,5,5,0,0,1,1.07,1.72l0,0.06s0,0,0,0l0,0.12,0.16,0.46-0.06,0a5.21,5.21,0,0,1,.18,1.39A5.69,5.69,0,0,1,95.24,82.36Zm10.55,0.36a4,4,0,0,1-1.09,1.6,5.41,5.41,0,0,1-3.07,1.35,22.18,22.18,0,0,1-3,.14l-1.66,0h-0.1l-0.59,0,0.18-2.08H97V77.15l-0.46,0-0.18-2.12H97c0.26,0,.91,0,1.76,0,1.07,0,2,.06,2.89.14a5.54,5.54,0,0,1,3.07,1.35,4.07,4.07,0,0,1,1.09,1.62,6.12,6.12,0,0,1,.32,2.28A6.28,6.28,0,0,1,105.8,82.71Z" transform="translate(-14.17 -22.47)"/><path class="cls-1" d="M103.66,78.79a2.1,2.1,0,0,0-.59-0.83,2.74,2.74,0,0,0-1.7-.71c-0.63-.08-1.39-0.14-2.18-0.16v6.63c0.79,0,1.54-.06,2.18-0.12a2.87,2.87,0,0,0,1.7-.73,2,2,0,0,0,.59-0.85,3.9,3.9,0,0,0,.18-1.43V80.26a3.88,3.88,0,0,0-.18-1.45v0Z" transform="translate(-14.17 -22.47)"/><path class="cls-1" d="M90.57,77.41a2.48,2.48,0,0,0-1.9.89,3.2,3.2,0,0,0-.85,2.22,3.28,3.28,0,0,0,.85,2.24,2.52,2.52,0,0,0,1.9.87,2.57,2.57,0,0,0,1.94-.87,3.4,3.4,0,0,0,0-4.46A2.53,2.53,0,0,0,90.57,77.41Z" transform="translate(-14.17 -22.47)"/><path class="cls-1" d="M79.88,77.41a2.48,2.48,0,0,0-1.9.89,3.2,3.2,0,0,0-.85,2.22A3.28,3.28,0,0,0,78,82.75a2.52,2.52,0,0,0,1.9.87,2.57,2.57,0,0,0,1.94-.87,3.4,3.4,0,0,0,0-4.46A2.53,2.53,0,0,0,79.88,77.41Z" transform="translate(-14.17 -22.47)"/><path class="cls-2" d="M120.08,73.88V70.75H20.51V90.2h99.57V73.88Zm-99,15.7V71.37h98.33V89.58H21.13Z" transform="translate(-14.17 -22.47)"/><polygon class="cls-2" points="24.76 57.49 20.72 52.62 20.3 63.17 22.32 63.25 22.54 58.13 24.76 60.8 26.92 58.13 27.13 63.25 29.19 63.17 28.76 52.62 24.76 57.49"/><path class="cls-2" d="M53,79.78a4.68,4.68,0,0,0-2.83-.71H47.76A12.46,12.46,0,0,1,46.34,79h0a2.1,2.1,0,0,1,.14-1.35,4.72,4.72,0,0,1,1.86-.24,2.57,2.57,0,0,1,.38,0h0.59a3.88,3.88,0,0,1,2.1.36c0.12,0,.12.06,0.12,0.12v0.67l2.16-.08V77.8a2.28,2.28,0,0,0-1.09-1.9A6.36,6.36,0,0,0,49,75.23a2.14,2.14,0,0,0-.36,0h-0.4a8.16,8.16,0,0,0-1.76.14,2.72,2.72,0,0,0-1.64.83c-0.71,1-.67,1.6-0.63,3.35a1.56,1.56,0,0,0,.12.51,1.77,1.77,0,0,0,1.21,1,11.52,11.52,0,0,0,2.26.2l2.42,0a3.75,3.75,0,0,1,1.45.22,6,6,0,0,1,0,1.47,1.05,1.05,0,0,1-.12.46h0a3.93,3.93,0,0,1-1.68.24H49.68c-0.24,0-.51,0-0.77,0H48.65a3.24,3.24,0,0,1-2.08-.42,0.58,0.58,0,0,1-.1-0.48V81.84l-2.16,0v0.4c0,0.2,0,.44,0,0.47v0a2.74,2.74,0,0,0,.73,2,5,5,0,0,0,3.62,1H49l0.69,0,0.24,0a12.23,12.23,0,0,0,1.52-.12,2.66,2.66,0,0,0,1.6-.87,3.1,3.1,0,0,0,.69-1.54v0a8.51,8.51,0,0,0,0-2A1.79,1.79,0,0,0,53,79.78Z" transform="translate(-14.17 -22.47)"/><polygon class="cls-2" points="57.9 58.28 55.47 55.31 53.05 58.28 52.84 52.62 50.97 52.72 51.41 63.25 55.47 58.28 59.55 63.25 59.98 52.72 58.14 52.62 57.9 58.28"/><path class="cls-2" d="M84.73,79.11l-0.16-.46,0-.12s0,0,0,0l0-.06a5,5,0,0,0-1.07-1.72,4.76,4.76,0,0,0-1.56-1.17,4.42,4.42,0,0,0-2-.42h0a4.54,4.54,0,0,0-2,.42,5,5,0,0,0-1.56,1.17,5.28,5.28,0,0,0-1,1.68,0.28,0.28,0,0,0,0,.12l0,0-0.2.57,0,0a5.52,5.52,0,0,0-.16,1.39,6.27,6.27,0,0,0,.28,1.84l0.12,0.32,0,0.08a5.75,5.75,0,0,0,1,1.58,5.08,5.08,0,0,0,1.58,1.15,4.56,4.56,0,0,0,1.94.46h0a4.58,4.58,0,0,0,2-.46,5,5,0,0,0,1.56-1.15,5.81,5.81,0,0,0,1-1.58l0.12-.4a5.7,5.7,0,0,0,.3-1.84,5.21,5.21,0,0,0-.18-1.39Zm-2.91,3.64a2.57,2.57,0,0,1-1.94.87,2.52,2.52,0,0,1-1.9-.87,3.28,3.28,0,0,1-.85-2.24A3.2,3.2,0,0,1,78,78.3a2.48,2.48,0,0,1,1.9-.89,2.53,2.53,0,0,1,1.94.89A3.4,3.4,0,0,1,81.82,82.75Z" transform="translate(-14.17 -22.47)"/><path class="cls-2" d="M95.42,79.11l-0.16-.46,0-.12s0,0,0,0l0-.06a5,5,0,0,0-1.07-1.72,4.76,4.76,0,0,0-1.56-1.17,4.42,4.42,0,0,0-2-.42h0a4.54,4.54,0,0,0-2,.42A5,5,0,0,0,87,76.71a5.28,5.28,0,0,0-1,1.68,0.28,0.28,0,0,0,0,.12l0,0-0.2.57,0,0a5.51,5.51,0,0,0-.16,1.39,6.27,6.27,0,0,0,.28,1.84L86,82.67l0,0.08a5.75,5.75,0,0,0,1,1.58,5.09,5.09,0,0,0,1.58,1.15,4.57,4.57,0,0,0,1.94.46h0a4.58,4.58,0,0,0,2-.46,5,5,0,0,0,1.56-1.15,5.81,5.81,0,0,0,1-1.58l0.12-.4a5.69,5.69,0,0,0,.3-1.84,5.21,5.21,0,0,0-.18-1.39Zm-2.91,3.64a2.57,2.57,0,0,1-1.94.87,2.52,2.52,0,0,1-1.9-.87,3.28,3.28,0,0,1-.85-2.24,3.2,3.2,0,0,1,.85-2.22,2.48,2.48,0,0,1,1.9-.89,2.53,2.53,0,0,1,1.94.89A3.4,3.4,0,0,1,92.51,82.75Z" transform="translate(-14.17 -22.47)"/><path class="cls-2" d="M104.71,76.5a5.54,5.54,0,0,0-3.07-1.35c-0.85-.08-1.82-0.14-2.89-0.14-0.85,0-1.5,0-1.76,0H96.33l0.18,2.12,0.46,0v6.53H96.51l-0.18,2.08,0.59,0H97l1.66,0a22.18,22.18,0,0,0,3-.14,5.41,5.41,0,0,0,3.07-1.35,4,4,0,0,0,1.09-1.6,6.28,6.28,0,0,0,.32-2.32,6.12,6.12,0,0,0-.32-2.28A4.07,4.07,0,0,0,104.71,76.5Zm-0.87,4.1a3.9,3.9,0,0,1-.18,1.43,2,2,0,0,1-.59.85,2.87,2.87,0,0,1-1.7.73c-0.63.06-1.39,0.1-2.18,0.12V77.09c0.79,0,1.54.08,2.18,0.16a2.74,2.74,0,0,1,1.7.71,2.1,2.1,0,0,1,.59.83v0a3.88,3.88,0,0,1,.18,1.45v0.34Z" transform="translate(-14.17 -22.47)"/></svg>